<?xml version="1.0" standalone="no"?>
<!DOCTYPE svg PUBLIC "-//W3C//DTD SVG 20010904//EN"
 "http://www.w3.org/TR/2001/REC-SVG-20010904/DTD/svg10.dtd">
<svg version="1.0" xmlns="http://www.w3.org/2000/svg"
 width="512.000000pt" height="512.000000pt" viewBox="0 0 512.000000 512.000000"
 preserveAspectRatio="xMidYMid meet">

<g transform="translate(0.000000,512.000000) scale(0.100000,-0.100000)"
fill="#ffffff" stroke="none">
<path d="M2484 4576 c-130 -33 -227 -145 -241 -281 l-6 -53 -573 -251 -574
-251 -46 35 c-186 142 -459 34 -504 -201 -20 -105 17 -213 101 -288 22 -20 55
-44 74 -53 l35 -17 0 -656 0 -656 -35 -17 c-126 -60 -202 -210 -175 -344 47
-233 319 -339 504 -198 l46 35 574 -251 573 -251 6 -53 c17 -164 154 -289 317
-289 163 0 300 125 317 289 l6 52 574 252 574 251 46 -35 c205 -157 507 -4
507 255 0 114 -68 227 -168 281 l-46 24 0 655 0 655 46 24 c183 97 224 341 83
495 -111 122 -293 140 -422 41 l-46 -35 -574 251 -574 252 -6 52 c-20 193
-209 328 -393 281z m139 -226 c38 -30 52 -80 33 -123 -15 -37 -59 -67 -96 -67
-37 0 -81 30 -96 67 -29 68 21 143 96 143 22 0 48 -8 63 -20z m-199 -372 c94
-48 240 -32 330 37 l42 32 575 -251 574 -252 7 -62 c12 -105 80 -202 174 -247
l34 -16 0 -659 0 -659 -34 -16 c-94 -45 -162 -142 -174 -247 l-7 -62 -575
-252 -575 -252 -29 25 c-66 55 -105 68 -206 68 -101 0 -140 -13 -206 -68 l-29
-24 -575 251 -575 252 -7 62 c-12 105 -85 210 -176 248 l-32 14 0 660 0 659
34 16 c94 45 162 142 174 247 l7 62 575 252 575 251 29 -24 c16 -13 47 -33 70
-45z m-1529 -362 c35 -15 65 -59 65 -96 0 -67 -72 -121 -136 -100 -94 31 -101
156 -10 196 39 17 40 17 81 0z m3409 0 c93 -39 87 -164 -8 -196 -64 -21 -136
33 -136 100 0 36 30 81 63 95 40 18 41 18 81 1z m-3409 -1920 c35 -15 65 -59
65 -96 0 -67 -72 -121 -136 -100 -94 31 -101 156 -10 196 39 17 40 17 81 0z
m3409 0 c93 -39 87 -164 -8 -196 -64 -21 -136 33 -136 100 0 36 30 81 63 95
40 18 41 18 81 1z m-1693 -752 c93 -48 55 -194 -50 -194 -104 0 -146 137 -57
191 38 23 67 24 107 3z"/>
<path d="M2065 3412 c-264 -120 -495 -226 -513 -236 -62 -32 -62 -29 -62 -616
0 -598 -2 -583 70 -620 23 -12 249 -116 503 -232 317 -144 473 -210 497 -210
24 0 171 61 486 205 570 259 552 250 570 292 11 28 14 128 14 565 0 609 3 583
-81 626 -113 57 -955 436 -979 440 -18 3 -159 -56 -505 -214z m846 -168 c189
-86 345 -157 347 -159 4 -4 -684 -315 -697 -315 -18 0 -705 314 -695 317 5 2
160 73 344 157 184 85 340 154 346 155 6 1 166 -69 355 -155z m-826 -498 l360
-163 3 -408 c1 -230 -2 -405 -7 -403 -4 1 -171 77 -370 167 l-361 165 0 403
c0 222 3 403 8 403 4 0 169 -74 367 -164z m1325 -239 l0 -404 -357 -163 c-197
-89 -364 -164 -371 -167 -10 -4 -12 77 -10 402 l3 407 360 164 c198 90 363
164 368 164 4 0 7 -182 7 -403z"/>
</g>
</svg>
